<?xml version="1.0" ?><svg fill="none" height="24" viewBox="0 0 24 24" width="24" xmlns="http://www.w3.org/2000/svg"><path clip-rule="evenodd" d="M14.8783 4.08306C12.9851 3.63898 11.0149 3.63898 9.12171 4.08306C6.62161 4.6695 4.6695 6.6216 4.08306 9.12171C3.63898 11.0149 3.63898 12.9851 4.08306 14.8783C4.6695 17.3784 6.62161 19.3305 9.12171 19.9169C11.0149 20.361 12.9851 20.361 14.8783 19.9169C17.3784 19.3305 19.3305 17.3784 19.9169 14.8783C20.361 12.9851 20.361 11.0149 19.9169 9.12171C19.3305 6.62161 17.3784 4.6695 14.8783 4.08306ZM8.77916 2.6227C10.8976 2.12577 13.1024 2.12577 15.2208 2.6227C18.2756 3.33924 20.6608 5.72441 21.3773 8.77916C21.8742 10.8976 21.8742 13.1024 21.3773 15.2208C20.6608 18.2756 18.2756 20.6608 15.2208 21.3773C13.1024 21.8742 10.8976 21.8742 8.77916 21.3773C5.72442 20.6608 3.33924 18.2756 2.6227 15.2209C2.12577 13.1024 2.12577 10.8976 2.6227 8.77915C3.33924 5.72441 5.72441 3.33924 8.77916 2.6227Z" fill="black" fill-rule="evenodd"/><path clip-rule="evenodd" d="M15.0303 13.5303C14.7374 13.8232 14.2626 13.8232 13.9697 13.5303L12 11.5607L10.0303 13.5303C9.73744 13.8232 9.26256 13.8232 8.96967 13.5303C8.67678 13.2374 8.67678 12.7626 8.96967 12.4697L11.4697 9.96967C11.6103 9.82902 11.8011 9.75 12 9.75C12.1989 9.75 12.3897 9.82902 12.5303 9.96967L15.0303 12.4697C15.3232 12.7626 15.3232 13.2374 15.0303 13.5303Z" fill="black" fill-rule="evenodd"/></svg>